<svg id="Layer_1" data-name="Layer 1" xmlns="http://www.w3.org/2000/svg" viewBox="0 0 64 64"><defs><style>.cls-1{fill:#d7263d;}</style></defs><circle class="cls-1" cx="56.27" cy="20.23" r="6"/><path class="cls-1" d="M30.72,16.27c8.28,0,16.56.06,24.84,0,2.53,0,4.66.54,4.67,3.37S58,23,55.53,23c-4.9-.06-9.8,0-14.69-.07-1.94-.05-2.67.47-2.57,2.52a87.6,87.6,0,0,1,0,10.12c-.15,2.3.75,2.77,2.78,2.61a56,56,0,0,1,5.94,0c3.43.08,5,1.47,5,4.84.1,5.36,0,10.71,0,16.06,0,2.63-1,4.73-3.95,4.74-3.11,0-4.08-2.18-4.07-5,0-3.5-.07-7,0-10.48,0-1.62-.43-2.27-2.14-2.24-4.2.06-8.45-.48-12.57,0-3.46.44-6,3.42-8.37,5.71-4.15,4-8.73,7.53-13.1,11.28-1.74,1.49-3.79,1-5.2-.9-1.54-2.05-1-4,.79-5.56C7.2,53.4,10.78,49.8,14.92,47c6-4,8.35-9,7.65-16.3-.73-7.7-1.05-8.93-1.05-11s1.84-3.47,4.32-3.46C34.47,16.31,22.1,16.27,30.72,16.27Z"/><path class="cls-1" d="M36.19,6.27c-.11,3.94-2.21,6.11-5.87,6.06a6.09,6.09,0,0,1-6.11-6.18A6.22,6.22,0,0,1,30.93,0C34.32.25,36.3,2.61,36.19,6.27Z"/></svg>