<svg id="Layer_1" data-name="Layer 1" xmlns="http://www.w3.org/2000/svg" viewBox="0 0 64 64"><defs><style>.cls-1{fill:#d7263d;}</style></defs><path class="cls-1" d="M19.12,12.56c-.74-.92-1.53-1.75-2.15-2.7a27.21,27.21,0,0,1-1.6-3A4.4,4.4,0,0,0,13.44,5a3.14,3.14,0,0,1-1.93-2.68l1.14.94c-.28-1.19-.51-2.18-.75-3.17L12.1,0c.13.16.32.29.39.48C12.79,1.21,13,2,14,2.11c.23,0,.42.44.62.69,1.57,1.9,3.13,3.81,4.71,5.69,1,1.2,2.05,2.37,3,3.51l2.31-1.76a1,1,0,0,1,0-1.74,1.41,1.41,0,0,0,.47-.7,1.07,1.07,0,0,1,1.33-1c.06-.09.14-.15.13-.19C26.37,5.44,27,5,28,4.69c1.72-.55,3.34-.87,4.8.41a6.93,6.93,0,0,1,1.65,2.08A2.93,2.93,0,0,1,33.61,11c-.46.39-1,.74-1.47,1.13l-.84-.66-1.92,2c.09.46.24,1,.3,1.58.36,3-1.2,5.29-3.19,7.3a9.1,9.1,0,0,1-2.2,1.5,1.59,1.59,0,0,0-1,2,1,1,0,0,1-.21.83,1.18,1.18,0,0,0-.18,1.77A2.39,2.39,0,0,1,23.51,31a1.75,1.75,0,0,0,0,.69l-.71,1.06s0,.13,0,.19c-.41,2.15-.72,2.37-2.93,2.09-.06.42-.13.85-.19,1.28a.84.84,0,0,1-1,.83c-.63,0-.76-.37-.76-.87a9,9,0,0,1,0-1.73,5.74,5.74,0,0,1,.69-1.35c-1.43.25-2.74.8-3,2.13s-.9,2.4-1.25,3.63a21.2,21.2,0,0,0-.54,2.88,15.18,15.18,0,0,0-.33,2.75,6.5,6.5,0,0,0,.61,2.45c.26.52.39.85-.06,1.23a2,2,0,0,0-.71,1.79c.11,2.28.14,4.56.34,6.82a12.14,12.14,0,0,0,.82,3.1c.66,1.7,0,2.75-1.89,2.73a8.49,8.49,0,0,0-1.82.07,9.64,9.64,0,0,0-1.43.66c-.6.23-1.39.71-1.8.5a4.77,4.77,0,0,1-1.71-1.82c-.27-.45.73-1.17,1.33-.87,1.11.56,1.33-.21,1.64-.92.12-.26.18-.55.31-.81.27-.55.58-1,1.26-.16a8,8,0,0,0,0-4.23C9.92,53.4,9.22,51.71,8.64,50a18.52,18.52,0,0,1-.38-2c-.25-1.22-.54-2.44-.79-3.67a6.21,6.21,0,0,1,.34-4.22C8.35,39,8.17,38.9,7,38.63a4.71,4.71,0,0,1-3.24-2.76c-.14-.31,0-1.07.24-1.18a2.09,2.09,0,0,1,1.59-.16,2.74,2.74,0,0,0,3.52-.35c.12-.11.23-.28.36-.31,1.29-.2,1.43-1.28,1.42-2.18,0-2.2-.29-4.4-.46-6.6a1.1,1.1,0,0,0-.19-.52c-1.28-1.87-.76-4-1-6.07a7.34,7.34,0,0,1,0-1.05V14.83a7.69,7.69,0,0,1-2.76-.92c-1.23-1-3-.11-4.05-1.41-.1-.12-.42-.05-.64-.09-.63-.12-1.3-.2-1.22-1.11,0,0,0-.08,0-.09-1.32-1.58.16-.86.76-.94.81-.12,1.62-.34,2.44-.48.29,0,.72-.12.9,0,2,1.75,4.56,2.26,7.08,2.75,1.32.26,2.67.43,3.95.81A3.72,3.72,0,0,0,19.12,12.56Zm-.84,21.31c0,1,0,1.76,0,2.5a.72.72,0,0,0,.45.48c.14,0,.5-.15.52-.27a6.69,6.69,0,0,0,0-1.84C19.26,34.47,18.78,34.28,18.28,33.87ZM17.56,19l1-2.22-2.35.51Z"/></svg>