<svg id="Layer_1" data-name="Layer 1" xmlns="http://www.w3.org/2000/svg" viewBox="0 0 64 64"><defs><style>.cls-1{fill:#d7263d;}</style></defs><path class="cls-1" d="M30.39,64H52.45c.94,0,1.88,0,2.82,0a2.11,2.11,0,0,0,2.35-2.08c.11-1.55-.88-2.23-2.3-2.38a15,15,0,0,0-1.64,0c-14.63,0-29.26,0-43.89,0-1.58,0-2.23-.29-2-2A98.1,98.1,0,0,1,15.1,30.79c.19-.44.27-1.39,1.23-.66a1.56,1.56,0,0,0,2.57-.5c.71-1.31-.27-2-1.24-2.61-3.91-2.44-7.83-4.85-11.72-7.32-1.1-.69-2.17-1.16-3,.22s.25,2,1.16,2.62c2.09,1.36,4.19,2.72,6.38,3.91,1.35.74,1.59,1.4.95,2.86a95,95,0,0,0-7.9,31.35C3.33,63.35,4,64,6.69,64Z"/><path class="cls-1" d="M34.48,39.61c1,2.19,1.32,4.55,2.81,6.28,2.75,3.2,5.68,6.24,8.49,9.39A2,2,0,0,0,48,56c2.34-.64,2.92-2.68,1.36-4.67-3.14-4-7.69-6.95-9.36-12.1-.2-.6-.6-.62-1.09-.31C37.62,39.76,36.1,39.55,34.48,39.61Z"/><path class="cls-1" d="M37.42,10.07a4.37,4.37,0,0,0-8.73.11,4.37,4.37,0,1,0,8.73-.11Z"/><path class="cls-1" d="M36.61,22.53a23.51,23.51,0,0,0,1.5,9.14c1.48,3.72,0,6-3.94,6.6-2,.32-4,.75-6,1-1.73.24-2.54.65-1.8,2.74C27,44,27.88,46,27.55,48.16c-.19,1.35-.53,2.48-2,2.57a2.55,2.55,0,0,1-2.78-2c-.95-3.46-1.94-6.9-2.77-10.39-.43-1.82.5-3,2.35-3.37s3.84-.7,5.77-1c1.12-.17,1.54-.57,1.31-1.84-.62-3.38-1-6.79-1.57-10.18-.06-.39.11-1.05-.57-1.09s-.45.58-.54,1c-.54,2.51-2.9,2.54-4.68,3.2-1.42.53-2.23-.67-2.89-1.81q-1.92-3.35-3.9-6.66c-.78-1.29-1.06-2.74.42-3.44a2.56,2.56,0,0,1,3.57,1.07c.51,1,1.13,1.87,1.68,2.81,1.7,2.84,1.91,3.19,4.76,1.4,5.25-3.28,10.39-1.56,15.6-.35.49.11.88.45,1.48.41,1.94-.11,2.72,1,2.52,2.8-.35,3.14-.82,6.27-1.3,9.4-.2,1.26-1.36,1.45-2.31,1.47a1.84,1.84,0,0,1-1.94-1.92A31.08,31.08,0,0,1,40.11,26c.43-3.43.45-3.43-3-4.09C36.51,21.75,36.39,22,36.61,22.53Z"/><path class="cls-1" d="M60.67,5.9c-.36-.66-1.38-1.2.13-1.87.74-.33-.08-.88-.43-1.21s-.72-.84-1.21,0c-.92,1.67-1.82-.13-2.74-.21-1.3-.1-.49-.8-.11-1.37C56.53.94,56.63.2,56.07.1a7.67,7.67,0,0,0-2.53,0c-.45.07-.51.75-.28,1,1.65,1.56.06,1.53-.87,1.91a6.7,6.7,0,0,0-4.19,7.29,6.57,6.57,0,0,0,6.69,5.65A6.68,6.68,0,0,0,60.67,5.9ZM54.87,14A4.9,4.9,0,0,1,50,9.11c.1-2.76,2.26-4.56,5.4-4.49a4.67,4.67,0,0,1,4.29,4.65A4.94,4.94,0,0,1,54.87,14Z"/><circle class="cls-1" cx="54.81" cy="9" r="1.5"/><circle class="cls-1" cx="59" cy="9" r="1.5"/></svg>