<svg id="Layer_1" data-name="Layer 1" xmlns="http://www.w3.org/2000/svg" xmlns:xlink="http://www.w3.org/1999/xlink" viewBox="0 0 64 64"><defs><style>.cls-1{fill:none;}.cls-2{clip-path:url(#clip-path);}.cls-3{fill:#d7263d;}</style><clipPath id="clip-path"><circle class="cls-1" cx="32" cy="32" r="32"/></clipPath></defs><g class="cls-2"><path class="cls-3" d="M215.42,61.8l-7.7,9.72-10.54,3.57-15.94-2.35-31.63-10.2-12.67-.65-17-8.66L100.33,38.76l3.44.67-4.46-4.79-7.24-2.1,8.67.23-8.15-7.19L81.17,23.39l11.25-1.34-12.24-6.5-14.35-.2,10-4.26L62.58,7.58,49.23,9.68l6.55-5.95-13.7-1.6L30.61,8.58l3.26-7.4L21.34,8.91l-5.75,8.25L14,14.5,4.87,32.6l1.48.87L2,39.09l3,3.43,1.09,2,2.07.12.75,1.17,2.42,1.59-.78-2.87,6.58-1.42,3.49,2.49-1.69,1.83L15.68,49l-2.1-2.37L13,48.72l1.16,2.65-.45,1,2.21,1.49L16,55.75l7,3.42-.35-2.07,5.86-.24L26.3,54.55l4.37-2-2.45-2.42,1.69-1.27,4.59-.08,3.89,2.12.13-1.82,5.4,4.2-.3-2.92,4.91,3.38,4-.22,31.18,10,24.79,16.6L129.84,106l23.6,12.9L173,141.19l4.77,9.21,4.56,4,3.63-.33,5.58-3.27.22-6-3.29-6.13-8-4.26-9.89-21.93L160.51,103,149.63,76.11l-.14-.2c-1.16-1-2.38-2-3.3-2.82l.42.18.13.06,5.92-.6,27.25,6.19,17.51,2.55.12,0L211.17,77l8.77-9,.49-7.46ZM14.4,28.92,14,32.53l-3.22,1-1,1.23-.28-.21,4.52-6.78,2.93.27Z"/></g></svg>