<svg id="Layer_1" data-name="Layer 1" xmlns="http://www.w3.org/2000/svg" xmlns:xlink="http://www.w3.org/1999/xlink" viewBox="0 0 64 64"><defs><style>.cls-1{fill:none;}.cls-2{clip-path:url(#clip-path);}.cls-3{fill:#d7263d;}.cls-4{clip-path:url(#clip-path-2);}</style><clipPath id="clip-path"><circle class="cls-1" cx="34" cy="-43" r="32"/></clipPath><clipPath id="clip-path-2"><circle class="cls-1" cx="30.6" cy="24.56" r="21.52"/></clipPath></defs><g class="cls-2"><path class="cls-3" d="M217.42-13.2l-7.7,9.72L199.18.09,183.24-2.26l-31.63-10.2-12.67-.65-17-8.66L102.33-36.24l3.44.67-4.46-4.79-7.24-2.1,8.67.23-8.15-7.19L83.17-51.61l11.25-1.34-12.24-6.5-14.35-.2,10-4.26L64.58-67.42l-13.35,2.1,6.55-6-13.7-1.6L32.61-66.42l3.26-7.4L23.34-66.09l-5.75,8.25L16-60.5,6.87-42.4l1.48.87L4-35.91l3,3.43,1.09,2,2.07.12.75,1.17,2.42,1.59-.78-2.87,6.58-1.42,3.49,2.49-1.69,1.83L17.68-26l-2.1-2.37L15-26.28l1.16,2.65-.45,1,2.21,1.49L18-19.25l7,3.42-.35-2.07,5.86-.24L28.3-20.45l4.37-2-2.45-2.42,1.69-1.27,4.59-.08,3.89,2.12.13-1.82,5.4,4.2-.3-2.92,4.91,3.38,4-.22,31.18,10,24.79,16.6L131.84,31l23.6,12.9L175,66.19l4.77,9.21,4.56,4,3.63-.33,5.58-3.27.22-6-3.29-6.13-8-4.26-9.89-21.93L162.51,28,151.63,1.11l-.14-.2c-1.16-1-2.38-2-3.3-2.82l.42.18.13.06,5.92-.6,27.25,6.19,17.51,2.55.12,0L213.17,2l8.77-8.95.49-7.46ZM16.4-46.08,16-42.47l-3.22,1-1,1.23-.28-.21,4.52-6.78,2.93.27Z"/></g><path class="cls-3" d="M6.44,54.48H3.17L2.29,56H0l4.91-7.66H7.05L8.9,56H6.74Zm-.33-1.59L5.59,50.4,4.13,52.89Z"/><path class="cls-3" d="M11,47.85h2.08L11.5,56H9.42Z"/><path class="cls-3" d="M18.83,50.26a2.45,2.45,0,0,1,.92.94,2.78,2.78,0,0,1,.35,1.43,3.56,3.56,0,0,1-.43,1.76,3.29,3.29,0,0,1-1.17,1.23,3,3,0,0,1-1.61.45,2,2,0,0,1-1.82-.81l-.57,2.83H12.42L14,50h2l-.12.56a2.44,2.44,0,0,1,1.72-.66A2.51,2.51,0,0,1,18.83,50.26Zm-1.22,3.68a1.8,1.8,0,0,0,.39-1.2,1.14,1.14,0,0,0-.3-.83,1.11,1.11,0,0,0-.82-.31,1.29,1.29,0,0,0-1,.46,1.82,1.82,0,0,0-.4,1.21,1.1,1.1,0,0,0,.3.82,1.15,1.15,0,0,0,.83.31A1.29,1.29,0,0,0,17.61,53.94Z"/><path class="cls-3" d="M26.9,50.47A1.92,1.92,0,0,1,27.49,52a2.87,2.87,0,0,1-.08.71L26.76,56H24.68l.61-3.08a1.75,1.75,0,0,0,.05-.4c0-.52-.28-.79-.83-.79a1.21,1.21,0,0,0-.89.34,1.85,1.85,0,0,0-.5,1L22.53,56H20.45l1.62-8.12h2.08l-.53,2.68a2.75,2.75,0,0,1,1.73-.59A2.24,2.24,0,0,1,26.9,50.47Z"/><path class="cls-3" d="M35.61,50,34.43,56h-2l.12-.56a2.44,2.44,0,0,1-1.72.66,2.51,2.51,0,0,1-1.23-.32,2.45,2.45,0,0,1-.92-.94,2.79,2.79,0,0,1-.35-1.44,3.52,3.52,0,0,1,.43-1.75A3.29,3.29,0,0,1,30,50.39a3,3,0,0,1,1.61-.45,2,2,0,0,1,1.82.81l.14-.71Zm-3,3.9a1.81,1.81,0,0,0,.4-1.2,1.07,1.07,0,0,0-1.13-1.14,1.29,1.29,0,0,0-1,.46,1.81,1.81,0,0,0-.39,1.21,1.05,1.05,0,0,0,1.12,1.13A1.29,1.29,0,0,0,32.6,53.94Z"/><path class="cls-3" d="M42.2,49.48a3.6,3.6,0,0,0-1.35,1.39,4,4,0,0,0-.48,1.94,2.4,2.4,0,0,0,.74,1.83,3,3,0,0,0,2.13.67,3.32,3.32,0,0,0,2-.6l.51-2.57h.78l-.59,2.94a3.92,3.92,0,0,1-1.25.7,4.46,4.46,0,0,1-1.5.26,4.2,4.2,0,0,1-1.91-.4A2.8,2.8,0,0,1,40,54.53a3.18,3.18,0,0,1-.43-1.68,4.7,4.7,0,0,1,.58-2.32,4.35,4.35,0,0,1,1.63-1.67,4.84,4.84,0,0,1,2.47-.62,4.64,4.64,0,0,1,1.69.29,2.76,2.76,0,0,1,1.15.83l-.57.49a2.32,2.32,0,0,0-1-.67,4.3,4.3,0,0,0-3.36.3Z"/><path class="cls-3" d="M53.83,50.21l-4.2,6.51a4.22,4.22,0,0,1-1,1.12,2,2,0,0,1-1.1.31,2.3,2.3,0,0,1-.79-.14,1.34,1.34,0,0,1-.58-.38l.42-.56a1.36,1.36,0,0,0,1,.41,1.22,1.22,0,0,0,.69-.21,2.6,2.6,0,0,0,.63-.72l.41-.61-1.44-5.73h.79l1.19,4.91L53,50.21Z"/><path class="cls-3" d="M63.47,50.66A1.76,1.76,0,0,1,64,52a4.31,4.31,0,0,1-.08.68L63.27,56h-.78l.66-3.28a3.1,3.1,0,0,0,.05-.54,1.24,1.24,0,0,0-.36-.95,1.51,1.51,0,0,0-1.06-.33,2.17,2.17,0,0,0-1.46.49,2.45,2.45,0,0,0-.77,1.44L58.91,56h-.78l.66-3.28a2.86,2.86,0,0,0,.06-.53,1.27,1.27,0,0,0-.36-1,1.52,1.52,0,0,0-1.07-.33,2.11,2.11,0,0,0-1.46.51,2.64,2.64,0,0,0-.79,1.51L54.56,56h-.78l1.14-5.76h.74l-.19.92a2.68,2.68,0,0,1,2.18-1,2.26,2.26,0,0,1,1.21.3,1.46,1.46,0,0,1,.67.85,2.79,2.79,0,0,1,1-.86A3.25,3.25,0,0,1,62,50.17,2.13,2.13,0,0,1,63.47,50.66Z"/><g class="cls-4"><path class="cls-3" d="M154,44.6l-5.18,6.54-7.09,2.4L131,52,109.7,45.1l-8.53-.43L89.75,38.84l-13.2-9.73,2.32.45-3-3.22L71,24.93l5.83.15-5.48-4.83-7.68-1.48,7.56-.9L63,13.5l-9.65-.14,6.73-2.86L51.16,8.14l-9,1.41,4.41-4L37.37,4.47,29.66,8.81l2.2-5L23.43,9l-3.87,5.55-1.09-1.79L12.35,25l1,.58-2.91,3.78,2,2.31L13.16,33l1.39.08.51.79,1.62,1.06L16.17,33l4.42-1,2.35,1.67L21.8,35l-2.18,1L18.2,34.37l-.42,1.44.78,1.78-.3.68,1.49,1,.06,1.26,4.68,2.3-.24-1.39,3.95-.15-1.44-1.56,2.94-1.32-1.65-1.63,1.14-.86,3.09-.05,2.61,1.42L35,36.07l3.63,2.82-.2-2,3.3,2.27,2.66-.15,21,6.72L82,56.94,96.4,74.3,112.28,83,125.4,98l3.21,6.2,3.07,2.67,2.44-.22,3.76-2.2.14-4-2.21-4.12-5.36-2.87L123.8,78.69,117,72.28l-7.32-18.05-.09-.13-2.22-1.9.28.12.09,0,4-.41,18.33,4.17,11.78,1.72h.08l9.16-3,5.9-6,.33-5ZM18.76,22.49l-.3,2.43-2.16.71-.7.82-.19-.14,3-4.56,2,.18Z"/></g></svg>