<svg id="Layer_1" data-name="Layer 1" xmlns="http://www.w3.org/2000/svg" viewBox="0 0 64 64"><defs><style>.cls-1{fill:#d7263d;}</style></defs><path class="cls-1" d="M50.24,45.09l.08-.05c.1,0,.22-.06.29,0a.3.3,0,0,1,.07.27,2.79,2.79,0,0,1-.82,1.83l0,0,.32-.12,1-.39a.57.57,0,0,1,.56.07c.11.08.13.18,0,.27a2.9,2.9,0,0,1-.58.43c-.59.27-1.19.51-1.79.73a4.86,4.86,0,0,1-.86.18l-.8.13c-.07.43-.1.84-.19,1.22A4.05,4.05,0,0,1,46.11,52c-.84.66-1.73,1.25-2.59,1.87a12,12,0,0,1-2.17,1.33c-.29.12-.58.22-.91.34H23.55a7.54,7.54,0,0,1-2.42-1.21L19.3,53c-.48-.34-1-.68-1.41-1.05a4.3,4.3,0,0,1-1.6-2.62c0-.27-.05-.54-.08-.86a4.22,4.22,0,0,0-.74-.14,3.51,3.51,0,0,1-1.24-.29c-.49-.2-1-.39-1.47-.61a3.05,3.05,0,0,1-.61-.46c-.12-.1-.05-.2,0-.28a.57.57,0,0,1,.55,0c.39.13.78.29,1.17.43l.21.07v0a3,3,0,0,1-.8-1.82.38.38,0,0,1,.06-.28,1.66,1.66,0,0,1,.44,0c.3-.25.41-.26.79,0a2.61,2.61,0,0,0,1.36.54,1.53,1.53,0,0,1,.37,0,1.57,1.57,0,0,1,.51.23c.32.24.54.26.8,0s.75-.93,1.09-1.43a15.9,15.9,0,0,0,.84-1.44,9.25,9.25,0,0,1,1.87-2.39,1,1,0,0,0,.36-.88c0-.56-.06-1.12-.09-1.68a10.94,10.94,0,0,1,.46-3.64,5.16,5.16,0,0,0,.12-1.66l-.06-1.42a3.58,3.58,0,0,1,1.54-3.08A6.84,6.84,0,0,1,26.16,27a1.26,1.26,0,0,0,.26-.13c.56-.34,1.13-.67,1.69-1s.94-.63,1.4-.94a1.18,1.18,0,0,0,.14-1.45,2.94,2.94,0,0,1-.57-1.11.2.2,0,0,0-.2-.18.38.38,0,0,1-.23-.15,3.15,3.15,0,0,1-.45-1.61c0-.17.07-.31.25-.36s.11-.16.1-.26a11.66,11.66,0,0,1-.06-1.32,3.29,3.29,0,0,1,.94-2.2,3.42,3.42,0,0,1,4.65-.39,3.26,3.26,0,0,1,1.4,2.29,4.72,4.72,0,0,1,0,1.59c0,.14,0,.25.15.32a.41.41,0,0,1,.18.3,3.55,3.55,0,0,1-.09.79,3.94,3.94,0,0,1-.25.68c-.08.18-.16.34-.39.34-.05,0-.11.07-.13.12a3.94,3.94,0,0,1-.61,1.21,1.09,1.09,0,0,0,.15,1.36c.45.35.94.66,1.43,1s1,.54,1.46.86a2.84,2.84,0,0,0,.86.41,5.76,5.76,0,0,1,2.2,1.16,3.46,3.46,0,0,1,1.34,2.76c0,.53,0,1.05-.07,1.58A6.42,6.42,0,0,0,42,34.88a8.77,8.77,0,0,1,.31,2.89c0,.69-.05,1.38-.09,2.07a.69.69,0,0,0,.22.52,13.83,13.83,0,0,1,1.21,1.33c.45.62.84,1.3,1.23,2a10.73,10.73,0,0,0,1.49,2.11c.3.3.5.32.83,0a1,1,0,0,1,.67-.23,2.15,2.15,0,0,0,1.37-.41,1.64,1.64,0,0,1,.22-.14C49.78,44.79,49.9,44.8,50.24,45.09Zm-7.53.9-.37-.26a15.09,15.09,0,0,1-2.42-1.95,3,3,0,0,1-.91-1.6c-.07-.46-.12-.93-.17-1.39s-.13-1.22-.24-1.82a9.74,9.74,0,0,1-.3-1.78c0-.32,0-.64,0-1,0,.07,0,.12,0,.17-.17.56-.33,1.12-.5,1.67a7.58,7.58,0,0,0-.37,2.63c0,.67,0,1.34,0,2s0,1.33.12,2a8,8,0,0,0,.64,2.39c.08.17.18.34.26.49a6.37,6.37,0,0,1,.87-.48c.53-.21,1.07-.38,1.61-.55S42.07,46.18,42.71,46ZM21.35,46l.79.26a10.6,10.6,0,0,1,3.41,1.32c.1-.18.2-.35.28-.53a10.17,10.17,0,0,0,.75-3.61q0-1.47,0-2.94a7.76,7.76,0,0,0-.08-1.36c-.1-.54-.27-1.06-.42-1.6s-.27-.87-.4-1.31a.9.9,0,0,0,0,.28,8.18,8.18,0,0,1-.1,1.57,19.74,19.74,0,0,0-.47,3.25,3.53,3.53,0,0,1-1,2.39,10.29,10.29,0,0,1-.76.72Zm-7-.25-.05,0a1.81,1.81,0,0,1,.13.34c0,.33.28.45.49.6s.28.12.37,0,0-.28-.11-.37C14.9,46.14,14.62,45.94,14.34,45.74Zm35.35,0,0,0c-.28.21-.57.4-.84.62a.6.6,0,0,0-.12.33.32.32,0,0,0,.22.1,2,2,0,0,0,.59-.42A1.52,1.52,0,0,0,49.69,45.79Z"/></svg>