<svg id="Layer_1" data-name="Layer 1" xmlns="http://www.w3.org/2000/svg" viewBox="0 0 64 64"><defs><style>.cls-1{fill:#d7263d;}</style></defs><path class="cls-1" d="M54.64,22.63V15.49H47.4c.05.24.08.44.14.64a1.7,1.7,0,0,1-.19,1.4c-.71,1.28-1.38,2.59-2.05,3.9a11.34,11.34,0,0,1-2.73,3.43,2.5,2.5,0,0,0-1,1.85,3.51,3.51,0,0,1-1.31,2.38,7.11,7.11,0,0,0-2.14,4.14,25.46,25.46,0,0,1-1.31,3.83,2.73,2.73,0,0,0-.13,2.57c.8-.45,1.62-.86,2.4-1.33a3.42,3.42,0,0,1,4.25.82,2,2,0,0,1,.58,1.52,10.33,10.33,0,0,1-1.77,6c-.77,1-1.47,2.1-2.19,3.16-.31.45-.59.92-.9,1.37a.62.62,0,0,0,.09.86,9.68,9.68,0,0,0,2.82,2,1.05,1.05,0,0,1,.54.67c.09.89.06.9-.85.91a6.91,6.91,0,0,1-3.18-.57,11.16,11.16,0,0,0-2.66-.58c-.44-1.15.08-2.13.4-3.14s.59-2,.87-3c.18-.65.33-1.3.5-1.95,0,0,0,0,0,0-1.22,1-2.65.91-4.09.81a17.81,17.81,0,0,0-2.92,0,4.72,4.72,0,0,1-4-.94c.7,2.07.84,4.15,1.74,6a7,7,0,0,1,.3,2.16c-.83.16-1.51.27-2.18.43a7.54,7.54,0,0,0-1.1.38,7,7,0,0,1-3.28.35c-.13,0-.36-.23-.35-.34a2.37,2.37,0,0,1,.25-1c.13-.2.49-.26.72-.42.76-.55,1.51-1.11,2.26-1.67A.75.75,0,0,0,25,50.94c-.78-1.11-1.55-2.23-2.3-3.36-.51-.77-1-1.56-1.48-2.34a7.55,7.55,0,0,1-.85-3.08c-.07-.49-.07-1-.13-1.46a2,2,0,0,1,.6-1.63,3.32,3.32,0,0,1,4-.88c.88.42,1.72.92,2.58,1.39a2.35,2.35,0,0,0,0-2.27,23.44,23.44,0,0,1-1.89-6.06,2.92,2.92,0,0,0-.66-1.08c-.64-.82-1.34-1.58-1.93-2.43a4.92,4.92,0,0,1-.43-1.26,4.74,4.74,0,0,0-.49-1.15A7.36,7.36,0,0,0,21,24.26,17,17,0,0,1,17.63,19a10.78,10.78,0,0,0-.69-1.3A1.82,1.82,0,0,1,16.65,16a2.86,2.86,0,0,0,.08-.47H10v7.13H7.81v-1.7h-2L5.71,20H4V15.54H3.81l-.08.73H3.18l.51-.77H.05l0-.62H4V10.74H5.68l.1-.89h2V8.37H10v6.46c.2,0,.34.05.49.05,2,0,4,0,6,0,.22,0,.43-.2.64-.31s.18-.18.27-.19c.82,0,1.63-.08,2.45-.1a.29.29,0,0,1,.24.14c.23.58.72.47,1.18.47H40.66c.94,0,1.89,0,2.83,0a1.2,1.2,0,0,0,.48-.26c.15-.1.29-.33.43-.33.77,0,1.55.05,2.33.08a.28.28,0,0,1,.15.08c.4.6,1,.43,1.56.43h6.18V8.38h2.17V9.84h2l.08.88h1.74v4.13H64c.05.58,0,.61-.47.61H61l.48.79H60.9l-.06-.74h-.15v4.4L58.9,20l-.06.89h-2v1.75ZM30.1,27.47c-.09-.26-.21-.54-.29-.84-.31-1-.66-2-.88-3-.13-.61.36-1.21.23-1.89a1.38,1.38,0,0,1,.23-1.1c.57-.57,1.09-1.32,2-1.41a4,4,0,0,1,3.05,1,1.62,1.62,0,0,1,.49.86A10.83,10.83,0,0,1,35,22.57a1.8,1.8,0,0,0,0,.31c.44.12.33.51.26.74-.29,1-.64,2.06-1,3.1-.08.26-.13.54-.19.83A27,27,0,0,1,36.31,26,5,5,0,0,0,38,24.57a7.19,7.19,0,0,1,2.47-2.11,2,2,0,0,0,.82-.78A9,9,0,0,1,43.53,19a14.12,14.12,0,0,0,1.41-1.38c.24-.27.28-.51-.11-.77a2.41,2.41,0,0,1-.8-1c-.13-.3-.25-.4-.56-.39l-2.54,0-15.52,0c-1.57,0-3.13,0-4.7,0a.8.8,0,0,0-.52.25,11.1,11.1,0,0,1-.91,1.12c-.29.25-.31.44-.09.69a8.49,8.49,0,0,0,1.14,1.18,8.92,8.92,0,0,1,2.6,3.09,1.26,1.26,0,0,0,.53.54,7.54,7.54,0,0,1,2.76,2.28,5,5,0,0,0,1,1C28.16,26.27,29.11,26.84,30.1,27.47Z"/></svg>