<svg id="Layer_1" data-name="Layer 1" xmlns="http://www.w3.org/2000/svg" viewBox="0 0 64 64"><defs><style>.cls-1{fill:#d7263d;}</style></defs><path class="cls-1" d="M55.83,7.34c0,1.15,0,2.3,0,3.46,0,1-.34,2.34,1.28,2.38S58.58,12,58.51,10.9c-.09-1.44-.12-2.62,1.93-2.66.79,0,1.25-1.51.34-1.59-2.59-.25-2.37-1.83-2.25-3.55.06-.9-.32-1.46-1.32-1.48S55.82,2.07,55.83,3C55.84,4.45,55.83,5.9,55.83,7.34Z"/><path class="cls-1" d="M8.2,7.37h0c0-1.25,0-2.5,0-3.74,0-1,.14-2-1.33-2s-1.38,1-1.36,2c0,1.42.37,2.91-2,2.87-.91,0-1.15,1.47-.27,1.57,2.59.27,2.32,1.92,2.24,3.63a1.27,1.27,0,0,0,1.35,1.5c.95,0,1.34-.6,1.34-1.49C8.21,10.25,8.2,8.81,8.2,7.37Z"/><path class="cls-1" d="M55.83,7.34c0-1.44,0-2.89,0-4.33,0-.94.4-1.41,1.38-1.39s1.38.58,1.32,1.48c-.12,1.72-.34,3.3,2.25,3.55.91.08.45,1.58-.34,1.59-2,0-2,1.22-1.93,2.66.07,1.06.19,2.33-1.39,2.28s-1.26-1.38-1.28-2.38C55.81,9.64,55.83,8.49,55.83,7.34Z"/><path class="cls-1" d="M8.2,7.37c0,1.44,0,2.88,0,4.33,0,.89-.39,1.5-1.34,1.49a1.27,1.27,0,0,1-1.35-1.5c.08-1.71.35-3.36-2.24-3.63-.88-.1-.64-1.58.27-1.57,2.35,0,2-1.45,2-2.87,0-1-.08-2,1.36-2s1.33,1.07,1.33,2c0,1.24,0,2.49,0,3.74Z"/><path class="cls-1" d="M54.69,1.06C54.67.28,54,0,53.22,0a1.15,1.15,0,0,0-1.29,1.22,19.39,19.39,0,0,1,0,2c-.14,1,.62,2.5-.48,2.89s-2.86.72-4.07-.49a2.3,2.3,0,0,0-3.31,0,4.09,4.09,0,0,1-3,.74H22.88c-.94,0-1.9.19-2.7-.65C19,4.47,17.84,5,16.62,5.7c-3.09,1.68-4.55.87-4.55-2.49,0-.67,0-1.34,0-2A1.15,1.15,0,0,0,10.76,0C10,0,9.36.36,9.34,1.12c-.06,4.14-.06,8.27,0,12.41,0,.79.64,1.12,1.4,1.12a1.2,1.2,0,0,0,1.37-1.42,7.5,7.5,0,0,1,0-2c.23-1-.87-2.49,1-2.81,1.66-.29,3.1-.31,4,1.71,2.28,5,4.76,9.86,7.24,14.74A7.5,7.5,0,0,1,25,28.48q0,15.58,0,31.16c0,2.18.21,4.38,2.94,4.36s2.82-2.31,2.8-4.44c0-4.61,0-9.23,0-13.85,0-1-.36-2.21,1.42-2.12,1.59.08,1.19,1.2,1.2,2.08,0,4.9,0,9.81,0,14.71,0,1.58,0,3.11,2.23,3.3,2.57.23,3.46-.54,3.48-3.5,0-5.38,0-10.77,0-16.16s0-10.58,0-15.87a6.53,6.53,0,0,1,.53-3.07C42.12,20,44.71,15,47.1,9.83c.93-2,2.49-1.56,3.9-1.39,1.67.2.73,1.67.89,2.57a10.49,10.49,0,0,1,0,2.31,1.13,1.13,0,0,0,1.17,1.32c.89.07,1.64-.24,1.65-1.18Q54.79,7.27,54.69,1.06ZM36.23,21A2.6,2.6,0,0,1,33,22.5c-1.7-.32-3.85,1.16-5-1.39-1.73-3.73-3.62-7.38-5.46-11.06-.49-1-1-1.73.8-1.72,6.21.05,12.42,0,19.07,0C40.14,12.89,38.1,16.89,36.23,21Z"/><path class="cls-1" d="M36.41,15a4.79,4.79,0,0,1-4.34,4.63,4.57,4.57,0,0,1-4.65-4.44A4.35,4.35,0,0,1,32,10.68,4.41,4.41,0,0,1,36.41,15Z"/></svg>